<svg xmlns="http://www.w3.org/2000/svg" width="120" height="120">
  <rect width="120" height="120" fill="#f0fdfa"/>
  <!-- soft cross -->
  <rect x="52" y="35" width="16" height="50" rx="3" fill="#0d9488" opacity="0.06"/>
  <rect x="35" y="52" width="50" height="16" rx="3" fill="#0d9488" opacity="0.06"/>
  <!-- heart -->
  <path d="M100 25 C100 20 106 18 108 22 C110 18 116 20 116 25 C116 32 108 36 108 36 C108 36 100 32 100 25Z" fill="#14b8a6" opacity="0.05"/>
  <!-- dots -->
  <circle cx="20" cy="20" r="4" fill="#5eead4" opacity="0.08"/>
  <circle cx="80" cy="100" r="3" fill="#2dd4bf" opacity="0.06"/>
  <!-- wave -->
  <path d="M0 90 Q15 82 30 90 T60 90" fill="none" stroke="#14b8a6" stroke-width="1.2" opacity="0.05"/>
  <!-- hand hint -->
  <path d="M15 65 L15 55 M20 63 L20 50 M25 63 L25 48 M30 63 L30 51 M35 65 L35 56" fill="none" stroke="#0d9488" stroke-width="1.5" stroke-linecap="round" opacity="0.05"/>
  <!-- hexagon -->
  <polygon points="105,75 112,71 119,75 119,83 112,87 105,83" fill="none" stroke="#5eead4" stroke-width="0.8" opacity="0.06"/>
</svg>
